<svg width="60" height="63" viewBox="0 0 60 63" fill="none" xmlns="http://www.w3.org/2000/svg">
<path d="M11.2113 43.2534C10.6703 44.5664 11.1626 45.5659 12.5762 46.2763C13.4048 46.6927 14.3017 46.9769 15.1207 47.5795H3.09777e-05C-0.0145925 47.5011 5.15235 45.5267 6.60495 43.2926C7.31662 42.1951 7.88693 40.9899 8.39875 39.7798C11.4404 32.5631 14.4431 25.3317 17.4604 18.1101C17.5823 17.821 17.7383 17.5515 17.9917 17.0616C18.6059 17.919 19.1811 18.6196 19.6442 19.3888C23.4365 25.7138 32.3958 48.7259 35.0134 53.0031C35.7202 54.1544 36.5294 55.2665 37.4506 56.2513C41.1747 60.2345 45.7226 61.4985 50.8165 59.6122C53.3171 58.6863 55.5739 57.094 57.9234 55.7712C58.3914 55.5066 58.7862 55.1147 59.4784 54.5806C58.4694 56.8147 57.124 58.3727 55.4326 59.5633C50.3241 63.1545 44.7965 63.9041 38.8594 61.9394C31.8791 59.6318 27.882 54.3504 25.2254 47.9029C23.2464 43.1064 18.5572 30.1575 17.8747 28.6093C17.6993 28.6338 13.2196 38.3786 11.2113 43.2534Z" fill="#303030"/>
<path d="M59.9903 19.7807C59.9903 19.5358 56.5879 22.6027 55.6422 22.1128C50.368 19.3692 44.8306 18.4334 39.0008 19.9522C37.8601 20.2462 36.739 20.5989 35.5691 20.9321C33.6145 16.6598 24.855 -0.21833 24.7624 0.00214008C23.4463 3.26019 22.1399 6.52314 20.8969 9.81059C20.7751 10.1339 20.9457 10.766 21.2089 11.0158C24.8501 14.4699 27.224 18.7323 29.0714 23.3376C29.8221 25.2043 30.5728 27.0758 31.3235 28.9425C31.5428 29.4814 31.8012 29.9321 32.0887 30.3094C33.9264 24.8025 39.0934 20.8341 45.1865 20.8341C52.0936 20.8341 57.7967 25.9294 58.8301 32.5778C59.2103 32.5435 59.571 32.5141 60 32.4798C60 28.1733 60 23.9794 59.9903 19.7807Z" fill="#303030"/>
</svg>
